# xmcd
#
# Track frame offsets: 
#        150
#        15672
#        29682
#        40012
#        49000
#        63092
#        74690
#        91615
#        108110
#        121027
#        135612
#        146387
#        164542
#        176387
#        186250
#        200407
#        213175
#        243772
#        251600
#
# Disc length: 3597 seconds
#
# Revision: 0
# Processed by: cddbd v1.5.2PL0 Copyright (c) Steve Scherf et al.
# Submitted via: ExactAudioCopy v0.99pb5
#
DISCID=fb0e0b13
DTITLE=The Underdogs - Blues Band and beyond
DYEAR=2000
DGENRE=
TTITLE0=Oh Pretty Woman
TTITLE1=Snowey Wood
TTITLE2=Main Line Driver
TTITLE3=Mary Anne
TTITLE4=Pauline
TTITLE5=Pretty Girls
TTITLE6=Yonder Wall
TTITLE7=All My Love
TTITLE8=Hey Gyp
TTITLE9=It Hurts Me Too
TTITLE10=Rubber Duck
TTITLE11=Cheating Everybody Needs Somebody Ride Your Pony (Live)
TTITLE12=See Saw
TTITLE13=Looking Back
TTITLE14=Sitting In The Rain
TTITLE15=Shortnin Bread
TTITLE16=Cheating/Everybody Needs Somebody (Live)
TTITLE17=There Will Come A Time
TTITLE18=Fine Jung Thing
EXTD=
EXTT0=
EXTT1=
EXTT2=
EXTT3=
EXTT4=
EXTT5=
EXTT6=
EXTT7=
EXTT8=
EXTT9=
EXTT10=
EXTT11=
EXTT12=
EXTT13=
EXTT14=
EXTT15=
EXTT16=
EXTT17=
EXTT18=
PLAYORDER=
